<svg xmlns="http://www.w3.org/2000/svg" width="80" height="96">
<rect x="0" y="0" width="16" height="16" fill="#000000" />
<rect x="16" y="0" width="16" height="16" fill="#f4ea8c" />
<rect x="32" y="0" width="16" height="16" fill="#000000" />
<rect x="48" y="0" width="16" height="16" fill="#000000" />
<rect x="64" y="0" width="16" height="16" fill="#000000" />
<rect x="0" y="16" width="16" height="16" fill="#000000" />
<rect x="16" y="16" width="16" height="16" fill="#000000" />
<rect x="32" y="16" width="16" height="16" fill="#000000" />
<rect x="48" y="16" width="16" height="16" fill="#f4ea8c" />
<rect x="64" y="16" width="16" height="16" fill="#000000" />
<rect x="0" y="32" width="16" height="16" fill="#f4ea8c" />
<rect x="16" y="32" width="16" height="16" fill="#000000" />
<rect x="32" y="32" width="16" height="16" fill="#000000" />
<rect x="48" y="32" width="16" height="16" fill="#000000" />
<rect x="64" y="32" width="16" height="16" fill="#000000" />
<rect x="0" y="48" width="16" height="16" fill="#000000" />
<rect x="16" y="48" width="16" height="16" fill="#8cfe0c" />
<rect x="32" y="48" width="16" height="16" fill="#000000" />
<rect x="48" y="48" width="16" height="16" fill="#24aa14" />
<rect x="64" y="48" width="16" height="16" fill="#000000" />
<rect x="0" y="64" width="16" height="16" fill="#000000" />
<rect x="16" y="64" width="16" height="16" fill="#24aa14" />
<rect x="32" y="64" width="16" height="16" fill="#000000" />
<rect x="48" y="64" width="16" height="16" fill="#8cfe0c" />
<rect x="64" y="64" width="16" height="16" fill="#000000" />
<rect x="0" y="80" width="16" height="16" fill="#24aa14" />
<rect x="16" y="80" width="16" height="16" fill="#24aa14" />
<rect x="32" y="80" width="16" height="16" fill="#8cfe0c" />
<rect x="48" y="80" width="16" height="16" fill="#24aa14" />
<rect x="64" y="80" width="16" height="16" fill="#24aa14" />
</svg>
